<svg width="237" height="86" viewBox="0 0 237 86" fill="none" xmlns="http://www.w3.org/2000/svg">
<path d="M20.4667 65.0667C16.7334 65.0667 13.3556 64.1111 10.3334 62.2C7.31114 60.2889 4.88891 57.7556 3.06669 54.6C1.28891 51.4 0.400024 47.8667 0.400024 44C0.400024 40.1333 1.28891 36.6 3.06669 33.4C4.88891 30.2 7.31114 27.6667 10.3334 25.8C13.3556 23.8889 16.7334 22.9333 20.4667 22.9333C22.6 22.9333 24.5778 23.2444 26.4 23.8667C28.2222 24.4889 29.8667 25.3778 31.3334 26.5333V0H42.9334V64H32.9334V60.0667C31.4222 61.6222 29.6 62.8444 27.4667 63.7333C25.3334 64.6222 23 65.0667 20.4667 65.0667ZM21.8 54.8667C23.7556 54.8667 25.5334 54.3778 27.1334 53.4C28.7334 52.4222 30 51.1111 30.9334 49.4667C31.9111 47.8222 32.4 46 32.4 44C32.4 42 31.9111 40.1778 30.9334 38.5333C30 36.8889 28.7334 35.5778 27.1334 34.6C25.5334 33.6222 23.7556 33.1333 21.8 33.1333C19.8445 33.1333 18.0667 33.6222 16.4667 34.6C14.8667 35.5778 13.5778 36.8889 12.6 38.5333C11.6667 40.1778 11.2 42 11.2 44C11.2 46 11.6667 47.8222 12.6 49.4667C13.5778 51.1111 14.8667 52.4222 16.4667 53.4C18.0667 54.3778 19.8445 54.8667 21.8 54.8667Z" fill="black"/>
<path d="M44.1659 64V24H55.7659V64H44.1659ZM49.9659 18.2C48.2325 18.2 46.7659 17.6 45.5659 16.4C44.3659 15.2 43.7659 13.7333 43.7659 12C43.7659 10.2222 44.3659 8.75555 45.5659 7.6C46.7659 6.4 48.2325 5.8 49.9659 5.8C51.7436 5.8 53.2103 6.4 54.3659 7.6C55.5659 8.75555 56.1659 10.2222 56.1659 12C56.1659 13.7333 55.5659 15.2 54.3659 16.4C53.2103 17.6 51.7436 18.2 49.9659 18.2Z" fill="black"/>
<path d="M74.4442 85.3333C71.3331 85.3333 68.3553 84.8667 65.5109 83.9333C62.7109 83.0444 60.2886 81.8222 58.2442 80.2667L61.0442 68.8C62.4664 70.7111 64.3331 72.2667 66.6442 73.4667C68.9553 74.7111 71.5553 75.3333 74.4442 75.3333C78.5331 75.3333 81.7109 74.1556 83.9775 71.8C86.2442 69.4889 87.3775 66.5111 87.3775 62.8667V60.0667C85.8664 61.6222 84.0442 62.8444 81.9109 63.7333C79.822 64.6222 77.5109 65.0667 74.9775 65.0667C71.2886 65.0667 67.9331 64.1111 64.9109 62.2C61.8886 60.2889 59.4664 57.7556 57.6442 54.6C55.8664 51.4 54.9775 47.8667 54.9775 44C54.9775 40.1333 55.8664 36.6 57.6442 33.4C59.4664 30.2 61.8886 27.6667 64.9109 25.8C67.9331 23.8889 71.2886 22.9333 74.9775 22.9333C77.5553 22.9333 79.9109 23.4 82.0442 24.3333C84.1775 25.2222 85.9997 26.4667 87.5109 28.0667V24H97.5109V64.5333C97.5109 68.8889 96.4442 72.6222 94.3109 75.7333C92.1775 78.8444 89.3553 81.2222 85.8442 82.8667C82.3331 84.5111 78.5331 85.3333 74.4442 85.3333ZM76.3775 54.8667C78.3331 54.8667 80.1109 54.3778 81.7109 53.4C83.3109 52.4222 84.5775 51.1111 85.5109 49.4667C86.4886 47.8222 86.9775 46 86.9775 44C86.9775 42 86.4886 40.1778 85.5109 38.5333C84.5775 36.8889 83.3109 35.5778 81.7109 34.6C80.1109 33.6222 78.3331 33.1333 76.3775 33.1333C74.422 33.1333 72.6442 33.6222 71.0442 34.6C69.4442 35.5778 68.1553 36.8889 67.1775 38.5333C66.2442 40.1778 65.7775 42 65.7775 44C65.7775 46 66.2442 47.8222 67.1775 49.4667C68.1553 51.1111 69.4442 52.4222 71.0442 53.4C72.6442 54.3778 74.422 54.8667 76.3775 54.8667Z" fill="black"/>
<path d="M98.7434 64V24H110.343V64H98.7434ZM104.543 18.2C102.81 18.2 101.343 17.6 100.143 16.4C98.9434 15.2 98.3434 13.7333 98.3434 12C98.3434 10.2222 98.9434 8.75555 100.143 7.6C101.343 6.4 102.81 5.8 104.543 5.8C106.321 5.8 107.788 6.4 108.943 7.6C110.143 8.75555 110.743 10.2222 110.743 12C110.743 13.7333 110.143 15.2 108.943 16.4C107.788 17.6 106.321 18.2 104.543 18.2Z" fill="black"/>
<path d="M116.222 64V33.2H108.755V24H116.422V10.6667H127.622V24H135.555V33.2H127.822V64H116.222Z" fill="black"/>
<path d="M134.008 64V24H145.608V64H134.008ZM139.808 18.2C138.075 18.2 136.608 17.6 135.408 16.4C134.208 15.2 133.608 13.7333 133.608 12C133.608 10.2222 134.208 8.75555 135.408 7.6C136.608 6.4 138.075 5.8 139.808 5.8C141.586 5.8 143.053 6.4 144.208 7.6C145.408 8.75555 146.008 10.2222 146.008 12C146.008 13.7333 145.408 15.2 144.208 16.4C143.053 17.6 141.586 18.2 139.808 18.2Z" fill="black"/>
<path d="M143.887 64L160.087 33.6H145.22V24H176.287L160.087 54.4H175.087V64H143.887Z" fill="black"/>
<path d="M193.905 65.3333C189.416 65.3333 185.46 64.4 182.038 62.5333C178.616 60.6667 175.949 58.1111 174.038 54.8667C172.127 51.5778 171.171 47.8222 171.171 43.6C171.171 39.5556 172.105 35.9778 173.971 32.8667C175.838 29.7111 178.349 27.2222 181.505 25.4C184.705 23.5778 188.238 22.6667 192.105 22.6667C196.06 22.6667 199.594 23.5778 202.705 25.4C205.816 27.1778 208.26 29.6222 210.038 32.7333C211.86 35.8444 212.771 39.3778 212.771 43.3333V47.4H188.371C187.26 47.4 186.194 47.3333 185.171 47.2C184.149 47.0667 183.127 46.9111 182.105 46.7333C182.638 49.4 183.949 51.5778 186.038 53.2667C188.171 54.9111 190.882 55.7333 194.171 55.7333C196.705 55.7333 198.971 55.2222 200.971 54.2C203.016 53.1778 204.682 51.9111 205.971 50.4L208.505 60.8C206.505 62.3111 204.238 63.4444 201.705 64.2C199.216 64.9556 196.616 65.3333 193.905 65.3333ZM181.838 39.7333C184.06 39.2444 186.238 39 188.371 39H195.438C196.682 39 197.86 39.0444 198.971 39.1333C200.082 39.2222 201.127 39.3778 202.105 39.6C201.438 37.2 200.216 35.3111 198.438 33.9333C196.705 32.5556 194.549 31.8667 191.971 31.8667C189.527 31.8667 187.393 32.5778 185.571 34C183.793 35.3778 182.549 37.2889 181.838 39.7333Z" fill="black"/>
<path d="M229.411 65.3333C227.367 65.3333 225.656 64.6444 224.278 63.2667C222.9 61.8889 222.211 60.1778 222.211 58.1333C222.211 56.0889 222.9 54.3778 224.278 53C225.656 51.6222 227.367 50.9333 229.411 50.9333C231.5 50.9333 233.211 51.6222 234.545 53C235.922 54.3778 236.611 56.0889 236.611 58.1333C236.611 60.1778 235.922 61.8889 234.545 63.2667C233.211 64.6444 231.5 65.3333 229.411 65.3333Z" fill="black"/>
</svg>
